<svg width="22" height="24" viewBox="0 0 22 24" fill="none" xmlns="http://www.w3.org/2000/svg">
<path d="M19.6239 4.54561V20.9487C19.6239 21.7897 19.2874 22.5543 18.7469 23.1069C18.2064 23.6594 17.4586 24 16.636 24H5.36403C4.5414 24 3.79357 23.6594 3.25309 23.1069C2.71261 22.5543 2.37948 21.7897 2.37948 20.9487V4.54561H0.734235C0.329723 4.54561 0 4.21199 0 3.79496C0 3.38141 0.329723 3.04778 0.734235 3.04778H21.2692C21.6737 3.04778 22 3.38141 22 3.79496C22 4.21199 21.6737 4.54561 21.2692 4.54561H19.6239ZM12.8594 8.06255C12.8594 7.64552 13.1891 7.31191 13.5936 7.31191C13.9981 7.31191 14.3279 7.64552 14.3279 8.06255V18.3597C14.3279 18.7732 13.9981 19.1103 13.5936 19.1103C13.1891 19.1103 12.8594 18.7732 12.8594 18.3597V8.06255ZM7.64833 8.06255C7.64833 7.64552 7.97806 7.31191 8.38257 7.31191C8.78708 7.31191 9.11681 7.64552 9.11681 8.06255V18.3597C9.11681 18.7732 8.78708 19.1103 8.38257 19.1103C7.97806 19.1103 7.64833 18.7732 7.64833 18.3597V8.06255ZM7.20643 1.5013C6.80192 1.5013 6.47219 1.16421 6.47219 0.750655C6.47219 0.337102 6.80192 0 7.20643 0H14.7936C15.1981 0 15.5278 0.337102 15.5278 0.750655C15.5278 1.16421 15.1981 1.5013 14.7936 1.5013H7.20643ZM18.1555 4.54561H3.84456V20.9487C3.84456 21.3762 4.01792 21.7619 4.29326 22.0434C4.5686 22.3249 4.94592 22.5022 5.36403 22.5022H16.636C17.0541 22.5022 17.4348 22.3249 17.7101 22.0434C17.9855 21.7619 18.1555 21.3762 18.1555 20.9487V4.54561Z" fill="#D20000"/>
</svg>
